<svg width="127" height="101" viewBox="0 0 127 101" fill="none" xmlns="http://www.w3.org/2000/svg">
<path d="M50.6387 0.542725C50.6387 20.7087 50.5247 33.5831 50.2969 39.1658C49.4994 60.699 46.0244 76.2507 39.8721 85.821C33.7197 95.5053 22.8962 100.347 7.40137 100.347L3.12891 82.2322C11.5599 82.2322 17.2565 79.5548 20.2188 74.2C23.0671 68.8451 24.4912 60.9268 24.4912 50.4451H0.0527344V0.542725H50.6387ZM126.005 0.542725C126.005 20.7087 125.891 33.5831 125.663 39.1658C124.866 60.699 121.391 76.2507 115.238 85.821C109.086 95.5053 98.2624 100.347 82.7676 100.347L78.4951 82.2322C86.9261 82.2322 92.6227 79.5548 95.585 74.2C98.4333 68.8451 99.8574 60.9268 99.8574 50.4451H75.4189V0.542725H126.005Z" fill="#E8A93B"/>
</svg>
