<svg width="311" height="245" viewBox="0 0 311 245" fill="none" xmlns="http://www.w3.org/2000/svg">
<path opacity="0.2" fill-rule="evenodd" clip-rule="evenodd" d="M31.6128 245H0.99707L84.4871 3H115.103L31.6128 245ZM30.8999 244H2.39991L85.1999 4H113.7L30.8999 244ZM124.916 164.2V53.8C124.916 36.833 129.261 23.5572 138.085 14.1171C146.925 4.66079 159.622 0 176.016 0C192.409 0 205.106 4.66079 213.946 14.1171C222.77 23.5572 227.116 36.833 227.116 53.8V164.2C227.116 181.167 222.77 194.443 213.946 203.883C205.106 213.339 192.409 218 176.016 218C159.622 218 146.925 213.339 138.085 203.883C129.261 194.443 124.916 181.167 124.916 164.2ZM192.116 166.3V51.7C192.116 44.9126 190.71 40.0081 188.07 36.8119C185.459 33.6523 181.506 32 176.016 32C170.525 32 166.572 33.6523 163.962 36.8119C161.321 40.0081 159.916 44.9126 159.916 51.7V166.3C159.916 173.087 161.321 177.992 163.962 181.188C166.572 184.348 170.525 186 176.016 186C181.506 186 185.459 184.348 188.07 181.188C190.71 177.992 192.116 173.087 192.116 166.3ZM310.033 215H275.033V54.8H240.533V29.4H241.533C255.281 29.4 265.053 27.5999 271.017 24.1433C277.162 20.297 282.147 13.5161 285.898 3.64478L286.143 3H310.033V215ZM271.533 25C265.333 28.6 255.333 30.4 241.533 30.4V53.8H276.033V214H309.033V4H286.833C283.033 14 277.933 21 271.533 25ZM125.916 53.8V164.2C125.916 181 130.216 194 138.816 203.2C147.416 212.4 159.816 217 176.016 217C192.216 217 204.616 212.4 213.216 203.2C221.816 194 226.116 181 226.116 164.2V53.8C226.116 37 221.816 24 213.216 14.8C204.616 5.6 192.216 1 176.016 1C159.816 1 147.416 5.6 138.816 14.8C130.216 24 125.916 37 125.916 53.8ZM193.116 51.7V166.3C193.116 180.1 187.416 187 176.016 187C164.616 187 158.916 180.1 158.916 166.3V51.7C158.916 37.9 164.616 31 176.016 31C187.416 31 193.116 37.9 193.116 51.7Z" fill="#0D0C42"/>
</svg>
