<svg width="343" height="245" viewBox="0 0 343 245" fill="none" xmlns="http://www.w3.org/2000/svg">
<path opacity="0.2" d="M30.8999 244.5H31.2563L31.3726 244.163L114.173 4.16307L114.401 3.5H113.7H85.1999H84.8435L84.7272 3.83693L1.92724 243.837L1.69848 244.5H2.3999H30.8999ZM338.733 214.5H339.233V214V184V183.5H338.733H276.533V179.5C276.533 171.777 278.215 164.658 281.575 158.134C285.144 151.592 291.708 143.231 301.297 133.043C316.111 117.427 326.646 103.489 332.877 91.2302C339.112 79.3611 342.233 66.8823 342.233 53.8C342.233 36.7226 338.013 23.5826 329.499 14.4597C320.979 5.13041 308.629 0.5 292.533 0.5C276.436 0.5 264.085 5.13085 255.565 14.4612C247.052 23.584 242.833 36.7235 242.833 53.8V74.2V74.7H243.333H274.533H275.033V74.2V51.7C275.033 44.8563 276.448 39.8165 279.193 36.4935C281.923 33.1887 286.038 31.5 291.633 31.5C297.324 31.5 301.458 33.2609 304.138 36.707C306.83 40.1685 308.233 46.2229 308.233 55C308.233 64.5165 305.954 73.6373 301.39 82.3684C297.222 90.3056 288.762 101.164 275.969 114.956C263.548 127.979 254.906 140.027 250.074 151.1C245.24 162.179 242.833 175.551 242.833 191.2V214V214.5H243.333H338.733ZM125.416 53.8V164.2C125.416 181.083 129.738 194.221 138.45 203.541C147.17 212.87 159.719 217.5 176.016 217.5C192.312 217.5 204.861 212.87 213.581 203.541C222.293 194.221 226.616 181.083 226.616 164.2V53.8C226.616 36.9165 222.293 23.7786 213.581 14.4586C204.861 5.13039 192.312 0.5 176.016 0.5C159.719 0.5 147.17 5.13039 138.45 14.4586C129.738 23.7786 125.416 36.9165 125.416 53.8ZM192.616 51.7V166.3C192.616 173.144 191.2 178.183 188.455 181.507C185.725 184.811 181.611 186.5 176.016 186.5C170.42 186.5 166.306 184.811 163.576 181.507C160.831 178.183 159.416 173.144 159.416 166.3V51.7C159.416 44.8563 160.831 39.8165 163.576 36.4935C166.306 33.1887 170.42 31.5 176.016 31.5C181.611 31.5 185.725 33.1887 188.455 36.4934C191.2 39.8165 192.616 44.8563 192.616 51.7Z" stroke="#0D0C42"/>
</svg>
