<svg width="411" height="286" viewBox="0 0 411 286" fill="none" xmlns="http://www.w3.org/2000/svg">
<path opacity="0.2" fill-rule="evenodd" clip-rule="evenodd" d="M35.7627 285.5H0.396973L97.687 3.5H133.053L35.7627 285.5ZM35.0498 284.5H1.79981L98.3998 4.5H131.65L35.0498 284.5ZM144.901 191.4V62.6C144.901 42.833 149.963 27.3905 160.221 16.4171C170.494 5.42745 185.258 0 204.351 0C223.444 0 238.209 5.42745 248.482 16.4171C258.74 27.3905 263.801 42.833 263.801 62.6V191.4C263.801 211.167 258.74 226.61 248.482 237.583C238.209 248.573 223.444 254 204.351 254C185.258 254 170.494 248.573 160.221 237.583C149.963 226.61 144.901 211.167 144.901 191.4ZM223.301 193.85V60.15C223.301 52.2126 221.658 46.4455 218.543 42.6744C215.458 38.9398 210.792 37 204.351 37C197.911 37 193.245 38.9398 190.16 42.6744C187.045 46.4455 185.401 52.2126 185.401 60.15V193.85C185.401 201.787 187.045 207.554 190.16 211.326C193.245 215.06 197.911 217 204.351 217C210.792 217 215.458 215.06 218.543 211.326C221.658 207.554 223.301 201.787 223.301 193.85ZM392.388 250.5H351.888V206.05H278.388V169.847L348.725 3.5H392.388V169.05H410.588V206.05H392.388V250.5ZM391.388 170.05V4.5H349.388L279.388 170.05V205.05H352.888V249.5H391.388V205.05H409.588V170.05H391.388ZM314.388 170.05H352.888V72.75L314.388 170.05ZM351.888 77.9953L315.859 169.05H351.888V77.9953ZM145.901 62.6V191.4C145.901 211 150.918 226.167 160.951 236.9C170.985 247.633 185.451 253 204.351 253C223.251 253 237.718 247.633 247.751 236.9C257.785 226.167 262.801 211 262.801 191.4V62.6C262.801 43 257.785 27.8333 247.751 17.1C237.718 6.36667 223.251 1 204.351 1C185.451 1 170.985 6.36667 160.951 17.1C150.918 27.8333 145.901 43 145.901 62.6ZM224.301 60.15V193.85C224.301 209.95 217.651 218 204.351 218C191.051 218 184.401 209.95 184.401 193.85V60.15C184.401 44.05 191.051 36 204.351 36C217.651 36 224.301 44.05 224.301 60.15Z" fill="#0D0C42"/>
</svg>
