<svg width="342" height="245" viewBox="0 0 342 245" fill="none" xmlns="http://www.w3.org/2000/svg">
<path opacity="0.2" fill-rule="evenodd" clip-rule="evenodd" d="M31.6128 245H0.99707L84.4871 3H115.103L31.6128 245ZM30.8999 244H2.39991L85.1999 4H113.7L30.8999 244ZM124.916 164.2V53.8C124.916 36.833 129.261 23.5572 138.085 14.1171C146.925 4.66079 159.622 0 176.016 0C192.409 0 205.106 4.66079 213.946 14.1171C222.77 23.5572 227.116 36.833 227.116 53.8V164.2C227.116 181.167 222.77 194.443 213.946 203.883C205.106 213.339 192.409 218 176.016 218C159.622 218 146.925 213.339 138.085 203.883C129.261 194.443 124.916 181.167 124.916 164.2ZM192.116 166.3V51.7C192.116 44.9126 190.71 40.0081 188.07 36.8119C185.459 33.6523 181.506 32 176.016 32C170.525 32 166.572 33.6523 163.962 36.8119C161.321 40.0081 159.916 44.9126 159.916 51.7V166.3C159.916 173.087 161.321 177.992 163.962 181.188C166.572 184.348 170.525 186 176.016 186C181.506 186 185.459 184.348 188.07 181.188C190.71 177.992 192.116 173.087 192.116 166.3ZM241.133 146.7H274.333V166.3C274.333 173.087 275.738 177.992 278.379 181.188C280.989 184.348 284.943 186 290.433 186C296.016 186 299.983 184.278 302.543 180.986C305.13 177.66 306.533 171.848 306.533 163.3V146.2C306.533 136.663 304.833 130.168 301.671 126.448L301.663 126.439L301.655 126.429C298.514 122.548 293.36 120.5 285.933 120.5H273.833V88.5H286.833C293.477 88.5 298.156 86.8407 301.095 83.7249C304.051 80.3912 305.633 74.9896 305.633 67.3V52C305.633 45.1037 304.273 40.116 301.721 36.8678C299.205 33.6656 295.406 32 290.133 32C285.047 32 281.394 33.5494 278.983 36.5069C276.539 39.5035 275.233 44.1102 275.233 50.5V65.3H242.033V53.2C242.033 36.2461 246.171 23.0707 254.594 13.8265L254.602 13.8176C263.239 4.5639 275.534 0 291.333 0C307.323 0 319.627 4.55984 328.069 13.8231C336.497 22.8706 340.633 35.9508 340.633 52.9V60.4C340.633 71.7066 338.665 81.0143 334.658 88.2591C330.912 95.0302 325.412 99.9474 318.193 102.998C325.706 106.141 331.432 111.181 335.329 118.11C339.489 125.506 341.533 134.99 341.533 146.5V165.1C341.533 182.06 337.291 195.238 328.664 204.482C320.216 213.548 307.71 218 291.333 218C274.947 218 262.345 213.444 253.702 204.182L253.693 204.174C245.271 194.929 241.133 181.754 241.133 164.8V146.7ZM327.933 203.8C336.333 194.8 340.533 181.9 340.533 165.1V146.5C340.533 123.993 332.639 109.671 316.853 103.535C316.733 103.489 316.613 103.443 316.492 103.397C316.406 103.364 316.319 103.332 316.233 103.3V102.7C316.319 102.668 316.405 102.636 316.491 102.603C316.612 102.557 316.732 102.511 316.852 102.464C332.039 96.5231 339.633 82.5018 339.633 60.4V52.9C339.633 36.1 335.533 23.3 327.333 14.5C319.133 5.5 307.133 1 291.333 1C275.733 1 263.733 5.5 255.333 14.5C247.133 23.5 243.033 36.4 243.033 53.2V64.3H274.233V50.5C274.233 37.5 279.533 31 290.133 31C301.133 31 306.633 38 306.633 52V67.3C306.633 75.1 305.033 80.8 301.833 84.4C298.633 87.8 293.633 89.5 286.833 89.5H274.833V119.5H285.933C293.533 119.5 299.033 121.6 302.433 125.8C305.833 129.8 307.533 136.6 307.533 146.2V163.3C307.533 171.9 306.133 178 303.333 181.6C300.533 185.2 296.233 187 290.433 187C279.033 187 273.333 180.1 273.333 166.3V147.7H242.133V164.8C242.133 181.6 246.233 194.5 254.433 203.5C262.833 212.5 275.133 217 291.333 217C307.533 217 319.733 212.6 327.933 203.8ZM125.916 53.8V164.2C125.916 181 130.216 194 138.816 203.2C147.416 212.4 159.816 217 176.016 217C192.216 217 204.616 212.4 213.216 203.2C221.816 194 226.116 181 226.116 164.2V53.8C226.116 37 221.816 24 213.216 14.8C204.616 5.6 192.216 1 176.016 1C159.816 1 147.416 5.6 138.816 14.8C130.216 24 125.916 37 125.916 53.8ZM193.116 51.7V166.3C193.116 180.1 187.416 187 176.016 187C164.616 187 158.916 180.1 158.916 166.3V51.7C158.916 37.9 164.616 31 176.016 31C187.416 31 193.116 37.9 193.116 51.7Z" fill="#0D0C42"/>
</svg>
